# Blender v2.76 (sub 0) OBJ File: 'VegetationGroup01.blend'
# www.blender.org
mtllib StrangeTreeBushFoliage(SimpleMesh).mtl
o BushExticPlant01_Plane.017
v 0.204570 0.586608 -0.346433
v -0.152063 0.510402 -0.433577
v 0.150412 0.373331 -0.028880
v -0.190185 0.286345 -0.125087
v 0.198881 0.517393 -0.206646
v 0.056130 0.552366 -0.554464
v -0.190901 0.420357 -0.301510
v -0.013564 -0.075352 -0.033616
v -0.003292 0.476288 -0.246427
v 0.201032 0.566522 -0.304056
v -0.060264 0.576181 -0.490051
v -0.190359 0.369050 -0.204239
v 0.060394 0.257885 0.004607
v 0.165867 0.457156 -0.112537
v 0.117626 0.609157 -0.444479
v -0.162544 0.484910 -0.392403
v -0.105977 0.215614 -0.049658
v -0.019348 0.334376 -0.098498
v 0.024277 0.549192 -0.392347
v 0.081249 0.519039 -0.216152
v -0.095540 0.482033 -0.262385
v -0.077866 0.544997 -0.366966
v 0.099717 0.579850 -0.321082
v 0.063729 0.456629 -0.108867
v -0.110340 0.424193 -0.157100
v -0.386604 0.540158 0.103057
v -0.117393 0.569836 0.360221
v -0.160720 0.291219 -0.127772
v 0.098326 0.302722 0.135468
v -0.296177 0.465508 -0.011842
v -0.357900 0.522732 0.356257
v -0.003079 0.485824 0.273525
v -0.024671 -0.073380 -0.021816
v -0.145296 0.503721 0.124441
v -0.357339 0.522420 0.068894
v -0.238520 0.604237 0.358956
v 0.052753 0.410535 0.193716
v -0.064757 0.187740 -0.099744
v -0.216930 0.398006 -0.071921
v -0.373483 0.583151 0.230285
v -0.083068 0.549400 0.332002
v 0.062418 0.208019 0.034649
v -0.043057 0.319806 0.015987
v -0.255843 0.567327 0.233360
v -0.208247 0.514756 0.054298
v -0.074469 0.528510 0.184599
v -0.155244 0.591618 0.262753
v -0.289261 0.572975 0.133274
v -0.130973 0.433527 -0.025133
v 0.001675 0.441599 0.106045
v 0.506414 0.119862 -0.002731
v 0.338263 0.131834 -0.369311
v 0.158412 0.147523 0.128112
v 0.010426 0.126579 -0.282533
v 0.383568 0.177847 0.065968
v 0.481935 -0.053976 -0.197251
v 0.217818 0.148400 -0.367355
v -0.015148 -0.067187 -0.022821
v 0.284606 0.246841 -0.141739
v 0.470373 0.144603 0.015274
v 0.433136 0.060369 -0.297360
v 0.120914 0.169607 -0.321699
v 0.037040 0.135365 0.052939
v 0.272459 0.190149 0.089994
v 0.497301 0.130714 -0.110372
v 0.312612 0.109139 -0.375125
v -0.036896 0.116692 -0.145947
v 0.109932 0.198012 -0.081921
v 0.399291 0.159146 -0.176591
v 0.331231 0.273111 -0.053950
v 0.257531 0.258252 -0.242077
v 0.351151 0.205357 -0.270125
v 0.427458 0.224017 -0.088044
v 0.218429 0.285557 -0.012840
v 0.147369 0.276526 -0.207544
v -0.322531 0.063198 -0.512437
v -0.556908 0.063076 -0.175240
v 0.009365 0.126698 -0.279067
v -0.208030 0.132511 0.060205
v -0.176627 0.099784 -0.443743
v -0.538730 -0.053052 -0.412084
v -0.429605 0.103693 -0.065661
v -0.016179 -0.077089 -0.029943
v -0.295519 0.169722 -0.241557
v -0.280401 0.076247 -0.490083
v -0.553028 0.055451 -0.298827
v -0.316226 0.138008 -0.009766
v 0.021536 0.132965 -0.129105
v -0.086819 0.124454 -0.360177
v -0.437207 0.055426 -0.464233
v -0.518453 0.076406 -0.144243
v -0.079227 0.128462 0.028689
v -0.129881 0.152445 -0.129834
v -0.421385 0.113320 -0.328559
v -0.242373 0.194902 -0.327442
v -0.352684 0.199889 -0.162713
v -0.452106 0.164995 -0.229996
v -0.339350 0.164488 -0.392454
v -0.135999 0.221072 -0.256099
v -0.244387 0.236230 -0.090423
v -0.160911 0.094318 0.487645
v 0.214235 0.074614 0.498572
v -0.187117 0.136202 0.074498
v 0.207727 0.159265 0.096522
v -0.183625 0.145714 0.324411
v 0.013984 -0.047483 0.611753
v 0.238623 0.117757 0.338521
v -0.005810 -0.063731 -0.030367
v 0.025955 0.220947 0.318102
v -0.164093 0.114017 0.439190
v 0.114029 0.069004 0.565542
v 0.220092 0.157407 0.219170
v -0.092286 0.120513 -0.015724
v -0.177631 0.171334 0.202419
v -0.069180 0.080652 0.560245
v 0.220287 0.091140 0.450961
v 0.096541 0.149949 0.002115
v 0.014070 0.182825 0.117605
v 0.023780 0.147086 0.473065
v -0.065680 0.254062 0.319915
v 0.117597 0.234613 0.326288
v 0.115106 0.195121 0.445786
v -0.063354 0.210605 0.439738
v -0.074524 0.278092 0.188711
v 0.114019 0.258356 0.197681
vt 0.441620 0.826873
vt 0.543277 0.826873
vt 0.529229 0.901131
vt 0.356642 0.810458
vt 0.356642 0.995801
vt 0.266403 0.971308
vt 0.268356 0.559215
vt 0.356642 0.533204
vt 0.356642 0.671723
vt 0.534815 0.559215
vt 0.550886 0.707693
vt 0.445526 0.707693
vt 0.443573 0.559215
vt 0.443573 0.455660
vt 0.531182 0.514300
vt 0.177114 0.559215
vt 0.270309 0.707693
vt 0.180748 0.514300
vt 0.268356 0.455660
vt 0.356642 0.391538
vt 0.266403 0.826873
vt 0.178795 0.901131
vt 0.175161 0.826873
vt 0.441620 0.971308
vt 0.164950 0.707693
vn -0.282500 0.710300 0.644700
vn -0.656300 0.615200 0.436700
vn -0.476300 0.451200 0.754700
vn -0.339000 0.454200 0.823900
vn -0.304700 0.144700 0.941400
vn -0.636400 0.251400 0.729200
vn -0.261000 0.904900 0.336000
vn -0.245000 0.946400 0.210200
vn -0.284700 0.830000 0.479500
vn -0.608600 0.727500 0.316700
vn -0.605900 0.713500 0.351900
vn -0.345400 0.831800 0.434400
vn -0.279500 0.896500 0.343700
vn -0.039400 0.988700 0.144700
vn -0.571400 0.788700 0.226900
vn 0.022500 0.889000 0.457400
vn -0.273700 0.851900 0.446400
vn 0.021300 0.940500 0.339000
vn -0.409900 0.910000 0.061900
vn -0.168200 0.985600 -0.013800
vn -0.364700 0.700000 0.613900
vn -0.208900 0.555500 0.804800
vn 0.005000 0.796900 0.604000
vn 0.100300 0.274800 0.956200
vn -0.027300 0.871900 0.488800
vn 0.531600 0.631300 -0.564600
vn 0.750200 0.619300 -0.231500
vn 0.746800 0.408600 -0.524700
vn 0.638900 0.382600 -0.667400
vn 0.732400 0.099000 -0.673600
vn 0.888900 0.190400 -0.416600
vn 0.107900 0.948600 -0.297500
vn -0.000500 0.991700 -0.128600
vn 0.349700 0.822400 -0.448700
vn 0.547200 0.835400 -0.051100
vn 0.634800 0.758800 -0.145400
vn 0.431600 0.827400 -0.359300
vn 0.205700 0.949900 -0.235000
vn -0.218500 0.968300 -0.120900
vn 0.404000 0.913500 0.047200
vn -0.058500 0.819000 -0.570800
vn 0.258500 0.841900 -0.473700
vn -0.166400 0.888100 -0.428500
vn 0.028400 0.992600 0.118300
vn -0.267300 0.955500 0.124700
vn 0.519500 0.646200 -0.559000
vn 0.523800 0.423500 -0.739100
vn 0.152900 0.640500 -0.752600
vn 0.432900 0.218100 -0.874600
vn 0.048900 0.768900 -0.637500
vn -0.265800 0.959900 -0.089200
vn -0.287900 0.740200 -0.607700
vn -0.616000 0.721100 -0.316900
vn -0.596800 0.785600 0.163100
vn -0.844300 0.459600 0.275500
vn -0.787600 0.616100 0.001100
vn 0.578100 0.797600 -0.172000
vn 0.693100 0.603100 -0.394700
vn 0.191400 0.968800 -0.157500
vn -0.032700 0.751600 -0.658700
vn 0.071100 0.738700 -0.670200
vn 0.203500 0.913500 -0.352200
vn 0.551300 0.750100 -0.365200
vn 0.877500 0.442400 -0.185000
vn -0.053600 0.805500 -0.590100
vn 0.584900 0.741200 0.329200
vn 0.293200 0.953900 0.063600
vn 0.722300 0.674100 0.154500
vn 0.718100 0.519200 -0.463400
vn 0.855900 0.367200 -0.364000
vn -0.186300 0.966900 0.173900
vn -0.285700 0.742700 0.605600
vn 0.110000 0.770200 0.628200
vn -0.654600 0.639000 0.403900
vn 0.385000 0.797100 0.465200
vn 0.031700 0.995600 0.087900
vn -0.425900 0.755300 0.498200
vn -0.024200 0.820600 0.570900
vn 0.382900 0.892500 0.238100
vn 0.718700 0.544300 0.432700
vn 0.238100 0.753500 0.612800
vn -0.274000 0.895600 -0.350400
vn -0.484000 0.805700 -0.341300
vn -0.149700 0.978600 -0.141200
vn -0.541300 0.761500 0.356500
vn -0.499900 0.779800 0.376700
vn -0.317300 0.948300 0.004900
vn -0.432400 0.892500 -0.128600
vn -0.543700 0.703800 -0.457200
vn -0.653300 0.744800 0.135900
vn 0.107700 0.777700 -0.619300
vn -0.071400 0.957900 -0.278000
vn -0.117800 0.750600 -0.650200
vn -0.616000 0.703100 -0.355000
vn -0.619500 0.654500 -0.433400
vn 0.121200 0.991900 -0.038700
vn 0.497100 0.828500 -0.257900
vn 0.313400 0.781900 -0.538900
vn 0.718200 0.694900 0.035400
vn 0.164000 0.807000 -0.567300
vn 0.120800 0.983600 -0.134100
vn 0.687200 0.724500 0.052900
vn 0.497100 0.803800 -0.326900
vn 0.016900 0.834500 -0.550800
vn 0.083200 0.507900 -0.857400
vn 0.315000 0.623200 -0.715800
vn -0.136200 0.856300 0.498100
vn 0.036100 0.744600 0.666500
vn 0.079300 0.976900 0.198400
vn 0.660500 0.691100 0.293400
vn 0.666700 0.713200 0.216600
vn 0.283800 0.929000 0.237600
vn 0.197500 0.851100 0.486500
vn -0.046900 0.640000 0.766900
vn 0.535300 0.667200 0.517900
vn -0.654100 0.691900 0.305600
vn -0.184700 0.949200 0.254800
vn -0.535500 0.664100 0.521600
vn 0.091200 0.624700 0.775500
vn 0.010700 0.580000 0.814500
vn -0.082100 0.979500 -0.184100
vn -0.511200 0.747300 -0.424400
vn -0.707900 0.706200 0.010600
vn -0.363700 0.704200 -0.609700
vn -0.655000 0.722200 0.222200
usemtl VegetationGroup1
s 1
f 25/1/1 12/2/2 4/3/3
f 18/4/4 8/5/5 13/6/6
f 23/7/7 19/8/8 9/9/9
f 16/10/10 7/11/11 21/12/12
f 22/13/13 21/12/12 9/9/9
f 11/14/14 22/13/13 19/8/8
f 2/15/15 16/10/10 22/13/13
f 10/16/16 23/7/7 20/17/17
f 1/18/18 15/19/19 23/7/7
f 15/19/19 6/20/20 19/8/8
f 24/21/21 13/6/6 3/22/22
f 20/17/17 24/21/21 14/23/23
f 9/9/9 18/4/4 24/21/21
f 18/4/4 25/1/1 17/24/24
f 9/9/9 21/12/12 25/1/1
f 21/12/12 7/11/11 12/2/2
f 17/24/24 25/1/1 4/3/3
f 24/21/21 18/4/4 13/6/6
f 20/17/17 23/7/7 9/9/9
f 22/13/13 16/10/10 21/12/12
f 19/8/8 22/13/13 9/9/9
f 6/20/20 11/14/14 19/8/8
f 11/14/14 2/15/15 22/13/13
f 5/25/25 10/16/16 20/17/17
f 10/16/16 1/18/18 23/7/7
f 23/7/7 15/19/19 19/8/8
f 14/23/23 24/21/21 3/22/22
f 5/25/25 20/17/17 14/23/23
f 20/17/17 9/9/9 24/21/21
f 8/5/5 18/4/4 17/24/24
f 18/4/4 9/9/9 25/1/1
f 25/1/1 21/12/12 12/2/2
f 50/1/26 37/2/27 29/3/28
f 43/4/29 33/5/30 38/6/31
f 48/7/32 44/8/33 34/9/34
f 41/10/35 32/11/36 46/12/37
f 47/13/38 46/12/37 34/9/34
f 36/14/39 47/13/38 44/8/33
f 27/15/40 41/10/35 47/13/38
f 35/16/41 48/7/32 45/17/42
f 26/18/43 40/19/44 48/7/32
f 40/19/44 31/20/45 44/8/33
f 49/21/46 38/6/31 28/22/47
f 45/17/42 49/21/46 39/23/48
f 34/9/34 43/4/29 49/21/46
f 43/4/29 50/1/26 42/24/49
f 34/9/34 46/12/37 50/1/26
f 46/12/37 32/11/36 37/2/27
f 42/24/49 50/1/26 29/3/28
f 49/21/46 43/4/29 38/6/31
f 45/17/42 48/7/32 34/9/34
f 47/13/38 41/10/35 46/12/37
f 44/8/33 47/13/38 34/9/34
f 31/20/45 36/14/39 44/8/33
f 36/14/39 27/15/40 47/13/38
f 30/25/50 35/16/41 45/17/42
f 35/16/41 26/18/43 48/7/32
f 48/7/32 40/19/44 44/8/33
f 39/23/48 49/21/46 28/22/47
f 30/25/50 45/17/42 39/23/48
f 45/17/42 34/9/34 49/21/46
f 33/5/30 43/4/29 42/24/49
f 43/4/29 34/9/34 50/1/26
f 50/1/26 46/12/37 37/2/27
f 75/1/51 62/2/52 54/3/53
f 68/4/54 58/5/55 63/6/56
f 73/7/57 69/8/58 59/9/59
f 66/10/60 57/11/61 71/12/62
f 72/13/63 71/12/62 59/9/59
f 61/14/64 72/13/63 69/8/58
f 52/15/65 66/10/60 72/13/63
f 60/16/66 73/7/57 70/17/67
f 51/18/68 65/19/69 73/7/57
f 65/19/69 56/20/70 69/8/58
f 74/21/71 63/6/56 53/22/72
f 70/17/67 74/21/71 64/23/73
f 59/9/59 68/4/54 74/21/71
f 68/4/54 75/1/51 67/24/74
f 59/9/59 71/12/62 75/1/51
f 71/12/62 57/11/61 62/2/52
f 67/24/74 75/1/51 54/3/53
f 74/21/71 68/4/54 63/6/56
f 70/17/67 73/7/57 59/9/59
f 72/13/63 66/10/60 71/12/62
f 69/8/58 72/13/63 59/9/59
f 56/20/70 61/14/64 69/8/58
f 61/14/64 52/15/65 72/13/63
f 55/25/75 60/16/66 70/17/67
f 60/16/66 51/18/68 73/7/57
f 73/7/57 65/19/69 69/8/58
f 64/23/73 74/21/71 53/22/72
f 55/25/75 70/17/67 64/23/73
f 70/17/67 59/9/59 74/21/71
f 58/5/55 68/4/54 67/24/74
f 68/4/54 59/9/59 75/1/51
f 75/1/51 71/12/62 62/2/52
f 100/1/76 87/2/77 79/3/78
f 93/4/79 83/5/80 88/6/81
f 98/7/82 94/8/83 84/9/84
f 91/10/85 82/11/86 96/12/87
f 97/13/88 96/12/87 84/9/84
f 86/14/89 97/13/88 94/8/83
f 77/15/90 91/10/85 97/13/88
f 85/16/91 98/7/82 95/17/92
f 76/18/93 90/19/94 98/7/82
f 90/19/94 81/20/95 94/8/83
f 99/21/96 88/6/81 78/22/97
f 95/17/92 99/21/96 89/23/98
f 84/9/84 93/4/79 99/21/96
f 93/4/79 100/1/76 92/24/99
f 84/9/84 96/12/87 100/1/76
f 96/12/87 82/11/86 87/2/77
f 92/24/99 100/1/76 79/3/78
f 99/21/96 93/4/79 88/6/81
f 95/17/92 98/7/82 84/9/84
f 97/13/88 91/10/85 96/12/87
f 94/8/83 97/13/88 84/9/84
f 81/20/95 86/14/89 94/8/83
f 86/14/89 77/15/90 97/13/88
f 80/25/100 85/16/91 95/17/92
f 85/16/91 76/18/93 98/7/82
f 98/7/82 90/19/94 94/8/83
f 89/23/98 99/21/96 78/22/97
f 80/25/100 95/17/92 89/23/98
f 95/17/92 84/9/84 99/21/96
f 83/5/80 93/4/79 92/24/99
f 93/4/79 84/9/84 100/1/76
f 100/1/76 96/12/87 87/2/77
f 125/1/101 112/2/102 104/3/103
f 118/4/104 108/5/105 113/6/106
f 123/7/107 119/8/108 109/9/109
f 116/10/110 107/11/111 121/12/112
f 122/13/113 121/12/112 109/9/109
f 111/14/114 122/13/113 119/8/108
f 102/15/115 116/10/110 122/13/113
f 110/16/116 123/7/107 120/17/117
f 101/18/118 115/19/119 123/7/107
f 115/19/119 106/20/120 119/8/108
f 124/21/121 113/6/106 103/22/122
f 120/17/117 124/21/121 114/23/123
f 109/9/109 118/4/104 124/21/121
f 118/4/104 125/1/101 117/24/124
f 109/9/109 121/12/112 125/1/101
f 121/12/112 107/11/111 112/2/102
f 117/24/124 125/1/101 104/3/103
f 124/21/121 118/4/104 113/6/106
f 120/17/117 123/7/107 109/9/109
f 122/13/113 116/10/110 121/12/112
f 119/8/108 122/13/113 109/9/109
f 106/20/120 111/14/114 119/8/108
f 111/14/114 102/15/115 122/13/113
f 105/25/125 110/16/116 120/17/117
f 110/16/116 101/18/118 123/7/107
f 123/7/107 115/19/119 119/8/108
f 114/23/123 124/21/121 103/22/122
f 105/25/125 120/17/117 114/23/123
f 120/17/117 109/9/109 124/21/121
f 108/5/105 118/4/104 117/24/124
f 118/4/104 109/9/109 125/1/101
f 125/1/101 121/12/112 112/2/102
