# Blender v2.76 (sub 0) OBJ File: 'VegetationGroup01.blend'
# www.blender.org
mtllib VegetationGroupBush02(SimpleMesh).mtl
o BushGrass01_Plane.011
v -0.250000 -0.002880 0.000000
v 0.250000 -0.002880 0.000000
v -0.250000 0.497119 -0.000000
v 0.250000 0.497119 -0.000000
v -0.050967 0.002559 0.128424
v -0.050967 0.002559 -0.371576
v -0.154697 0.491680 0.128424
v -0.154697 0.491680 -0.371576
v -0.205584 0.002559 0.188523
v 0.147969 0.002559 -0.165030
v -0.278933 0.491680 0.115175
v 0.074621 0.491680 -0.238379
v -0.283049 0.002559 -0.171523
v 0.186798 0.002559 -0.000513
v -0.247571 0.491680 -0.268998
v 0.222276 0.491680 -0.097988
v -0.003446 0.019391 0.221200
v 0.034863 0.019391 -0.216669
v -0.003446 0.417401 0.221200
v 0.034863 0.417400 -0.216669
v 0.124269 0.023721 0.056739
v -0.313600 0.023721 0.018430
v 0.116322 0.413071 0.147579
v -0.321548 0.413071 0.109271
v 0.165054 0.027159 0.201440
v -0.117478 0.018972 -0.135169
v 0.095200 0.417819 0.250570
v -0.187332 0.409633 -0.086038
v -0.156187 0.023721 0.237001
v 0.029571 0.023721 -0.161359
v -0.238831 0.413071 0.198463
v -0.053073 0.413071 -0.199897
v -0.220661 0.032647 0.174099
v 0.126577 -0.029438 -0.180262
v -0.126577 0.523677 0.180262
v 0.220661 0.461592 -0.174099
v -0.166034 0.012317 -0.048643
v 0.088861 0.012317 -0.303537
v -0.218914 0.364949 -0.101524
v 0.035980 0.364949 -0.356418
vt 0.631358 0.001866
vt 0.987000 0.001866
vt 0.987000 0.357509
vt 0.631358 0.357509
vn 0.000000 0.000000 1.000000
vn 0.978200 0.207400 0.000000
vn 0.691700 0.207400 0.691700
vn -0.334600 0.207400 0.919200
vn 0.996200 0.000000 0.087100
vn 0.084800 0.228000 -0.969900
vn 0.745800 0.212700 -0.631200
vn 0.882400 0.228000 0.411500
vn 0.694400 -0.141900 0.705400
usemtl VegetationGroup1
s 1
f 1/1/1 2/2/1 4/3/1 3/4/1
f 5/1/2 6/2/2 8/3/2 7/4/2
f 9/1/3 10/2/3 12/3/3 11/4/3
f 13/1/4 14/2/4 16/3/4 15/4/4
f 17/1/5 18/2/5 20/3/5 19/4/5
f 21/1/6 22/2/6 24/3/6 23/4/6
f 25/1/7 26/2/7 28/3/7 27/4/7
f 29/1/8 30/2/8 32/3/8 31/4/8
f 33/1/9 34/2/9 36/3/9 35/4/9
f 37/1/3 38/2/3 40/3/3 39/4/3
